# xmcd
#
# Track frame offsets: 
#        150
#        14647
#        31105
#        43195
#        59300
#        75650
#        93045
#        109680
#        126847
#        142135
#        155284
#        168515
#
# Disc length: 2436 seconds
#
# Revision: 0
# Processed by: cddbd v1.5.2PL0 Copyright (c) Steve Scherf et al.
# Submitted via: ExactAudioCopyFreeDBPlugin 1.0
#
DISCID=9709820c
DTITLE=ดวงตา คงทอง - อยากเจอคนจริงใจ
DYEAR=2001
DGENRE=Country
TTITLE0=อยากเจอคนจริงใจ
TTITLE1=ชานรักชานชลา
TTITLE2=อย่าลืมคนคอย
TTITLE3=คนเคยเห็นหน้า
TTITLE4=กระโด๊กกระเด๊ก
TTITLE5=คอยพี่ที่เมืองกาญจน์
TTITLE6=ถูกหลอกแล้วแม่
TTITLE7=ไม่มีหลักฐาน
TTITLE8=ยอมช้ำ
TTITLE9=รักคนโลเล
TTITLE10=บอกเหอะ
TTITLE11=หลอกอีกแหละ
EXTD=
EXTT0=
EXTT1=
EXTT2=
EXTT3=
EXTT4=
EXTT5=
EXTT6=
EXTT7=
EXTT8=
EXTT9=
EXTT10=
EXTT11=
PLAYORDER=
